HIERARCHY
ROOT Hips
{
  OFFSET 0.000000 0.000000 0.000000
  CHANNELS 6 Xposition Yposition Zposition Zrotation Xrotation Yrotation
  JOINT Spine
  {
    OFFSET 0.005049 0.081382 -0.018743
    CHANNELS 3 Zrotation Xrotation Yrotation
    JOINT Chest
    {
      OFFSET 0.006172 0.099467 -0.022908
      CHANNELS 3 Zrotation Xrotation Yrotation
      JOINT Neck
      {
        OFFSET 0.001594 0.013148 -0.016126
        CHANNELS 3 Zrotation Xrotation Yrotation
        JOINT Head
        {
          OFFSET 0.006706 0.048531 -0.051623
          CHANNELS 3 Zrotation Xrotation Yrotation
          End Site
          {
            OFFSET 0.001676 0.012133 -0.012906
          }
        }
      }
      JOINT LeftShoulder
      {
        OFFSET 0.058457 -0.000256 0.030249
        CHANNELS 3 Zrotation Xrotation Yrotation
        JOINT LeftArm
        {
          OFFSET 0.023104 -0.081868 -0.055197
          CHANNELS 3 Zrotation Xrotation Yrotation
          JOINT LeftForeArm
          {
            OFFSET 0.008469 -0.038338 -0.091959
            CHANNELS 3 Zrotation Xrotation Yrotation
            JOINT LeftHand
            {
              OFFSET 0.003988 -0.006813 -0.038551
              CHANNELS 3 Zrotation Xrotation Yrotation
              JOINT LeftHandEnd
              {
                OFFSET 0.019593 -0.002218 0.009863
                CHANNELS 3 Zrotation Xrotation Yrotation
                End Site
                {
                  OFFSET 0.004898 -0.000555 0.002466
                }
              }
            }
          }
        }
      }
      JOINT RightShoulder
      {
        OFFSET -0.058457 0.000256 -0.030249
        CHANNELS 3 Zrotation Xrotation Yrotation
        JOINT RightArm
        {
          OFFSET -0.011695 -0.075695 -0.071900
          CHANNELS 3 Zrotation Xrotation Yrotation
          JOINT RightForeArm
          {
            OFFSET 0.007981 -0.046526 -0.082476
            CHANNELS 3 Zrotation Xrotation Yrotation
            JOINT RightHand
            {
              OFFSET 0.010919 -0.008150 -0.030326
              CHANNELS 3 Zrotation Xrotation Yrotation
              JOINT RightHandEnd
              {
                OFFSET 0.024452 -0.003333 -0.003283
                CHANNELS 3 Zrotation Xrotation Yrotation
                End Site
                {
                  OFFSET 0.006113 -0.000833 -0.000821
                }
              }
            }
          }
        }
      }
    }
  }
  JOINT LeftUpLeg
  {
    OFFSET 0.034820 -0.013668 0.032821
    CHANNELS 3 Zrotation Xrotation Yrotation
    JOINT LeftLeg
    {
      OFFSET -0.025723 -0.030969 -0.132913
      CHANNELS 3 Zrotation Xrotation Yrotation
      JOINT LeftFoot
      {
        OFFSET -0.011062 -0.117471 -0.034516
        CHANNELS 3 Zrotation Xrotation Yrotation
        JOINT LeftToe
        {
          OFFSET -0.003304 -0.035913 -0.052284
          CHANNELS 3 Zrotation Xrotation Yrotation
          End Site
          {
            OFFSET -0.000826 -0.008978 -0.013071
          }
        }
      }
    }
  }
  JOINT RightUpLeg
  {
    OFFSET -0.036416 -0.012614 0.004827
    CHANNELS 3 Zrotation Xrotation Yrotation
    JOINT RightLeg
    {
      OFFSET 0.005070 -0.045724 -0.126799
      CHANNELS 3 Zrotation Xrotation Yrotation
      JOINT RightFoot
      {
        OFFSET 0.009583 -0.117456 -0.017324
        CHANNELS 3 Zrotation Xrotation Yrotation
        JOINT RightToe
        {
          OFFSET 0.014966 -0.030832 -0.048485
          CHANNELS 3 Zrotation Xrotation Yrotation
          End Site
          {
            OFFSET 0.003742 -0.007708 -0.012121
          }
        }
      }
    }
  }
}
MOTION
Frames: 17
Frame Time: 0.03333333
0.000000 0.000000 0.000000 3.034349 10.724191 6.865726 0.000000 0.000000 0.000000 0.000000 0.000000 0.000000 -0.317035 2.458315 -6.456833 0.000000 -0.000000 0.000000 1.069994 -19.431282 -13.036016 -5.212643 18.411134 2.156405 -3.431446 11.870313 8.435934 -24.771323 -8.423053 -5.474496 22.410812 -12.568177 -2.475632 -10.619506 -30.195564 -2.599120 -4.176818 0.036859 7.281506 -1.194769 2.509084 14.893068 27.915117 9.463576 -24.578710 -10.970440 -1.744720 -7.578552 -8.466454 2.013290 2.234388 11.367311 -48.588912 -5.653179 -17.954724 41.783380 36.996479 -1.139782 -8.019890 -29.900836 -10.121435 1.132673 8.964404 -0.859267 -37.742113 -21.371713 -7.254247 22.213627 13.705964 2.636465 2.721033 -8.997359
0.001268 0.004478 0.003304 3.317487 9.924718 7.015514 -0.000000 -0.000000 -0.000000 -0.000000 -0.000000 -0.000000 -0.632398 2.299699 -6.495850 -0.000000 0.000000 -0.000000 0.224882 -18.943875 -13.170263 -4.632442 17.573505 1.814894 -3.565171 11.715062 8.954676 -23.106764 -8.005287 -3.878040 20.747311 -12.131944 -3.901692 -10.724172 -27.832781 -2.730415 -4.362775 -1.348554 7.838248 -0.572015 4.351535 17.203985 26.169043 6.522465 -27.986209 -10.027014 -1.598916 -5.741439 -8.723615 3.676962 2.081007 10.819286 -48.144929 -5.728541 -17.829800 39.376644 36.357069 0.392905 -7.409089 -29.307953 -9.795114 0.908478 7.672941 0.806751 -37.945474 -19.694635 -6.442933 21.824705 10.670484 0.627180 4.507159 -6.188680
0.002727 0.009927 0.007277 3.527318 9.240735 7.055548 0.000000 0.000000 0.000000 0.000000 0.000000 0.000000 -0.991716 1.477941 -6.348073 -0.000000 -0.000000 0.000000 -0.533827 -18.204594 -13.006719 -3.969690 16.046126 1.414485 -3.209604 11.307043 8.259790 -21.452172 -7.318289 -1.688336 19.115969 -11.469910 -4.741148 -10.725427 -24.956277 -2.750659 -4.210210 -2.925669 7.609165 -0.251042 5.558166 17.730492 24.387703 4.947313 -28.921100 -9.395358 -1.477494 -4.383560 -8.975822 5.673885 2.001327 10.589012 -47.825957 -5.619872 -16.873328 37.111306 34.566329 1.095921 -6.747345 -28.145863 -9.004074 0.667829 5.542942 3.780744 -37.738147 -16.471700 -5.425850 21.185960 7.289920 -2.463596 5.829463 -3.099769
0.004337 0.016204 0.012085 3.621661 8.640514 6.954590 0.000000 -0.000000 0.000000 0.000000 -0.000000 0.000000 -1.381046 -0.046897 -6.013642 0.000000 0.000000 0.000000 -1.145016 -17.078774 -12.468546 -3.233830 13.968040 0.960539 -2.351711 10.737082 6.082622 -20.265794 -6.499780 1.128966 17.848591 -10.794059 -4.953540 -10.474407 -21.449019 -2.709794 -3.596918 -3.778703 6.558982 -0.269048 5.462668 15.784862 22.250093 4.553247 -26.843953 -9.108674 -1.377730 -3.037502 -9.165676 7.787018 2.047533 11.117694 -46.977461 -5.312833 -14.152720 35.409410 30.983797 -0.536436 -6.273285 -26.272010 -7.745078 -0.593249 2.445238 7.231438 -34.474974 -11.908264 -4.342308 19.345946 3.808786 -5.427414 6.213632 -0.027879
0.006074 0.023187 0.017967 3.718860 7.914770 6.548494 -0.000000 0.000000 0.000000 -0.000000 0.000000 0.000000 -1.793768 -1.533320 -5.421671 0.000000 0.000000 0.000000 -1.352202 -15.119631 -11.451603 -2.741360 11.673834 0.646040 -1.047496 9.994178 2.313805 -20.291500 -5.813314 3.360272 17.710803 -10.233295 -3.476536 -10.030621 -17.257977 -2.442815 -2.168564 -3.557969 4.165258 -0.814578 3.469168 11.470842 19.437002 5.946899 -19.806252 -8.771408 -1.349617 -3.166489 -9.159307 8.789317 2.192697 11.702194 -44.376188 -5.065255 -11.145989 33.630429 26.337618 -2.829705 -6.227542 -23.359364 -6.181200 -1.835990 -1.226103 9.985223 -28.216579 -6.812445 -3.916765 16.637948 1.424761 -7.108375 4.819186 1.905368
0.007920 0.030801 0.025103 3.832331 6.909217 5.852676 0.000000 -0.000000 -0.000000 0.000000 -0.000000 -0.000000 -2.170372 -2.764449 -4.556352 0.000000 -0.000000 0.000000 -1.330738 -12.387150 -10.031074 -2.405794 9.355222 0.411558 0.318081 8.944362 -1.979274 -20.953686 -5.247327 5.190490 18.135064 -9.779227 -1.328655 -9.417941 -12.335412 -2.020305 -0.008087 -2.015263 1.166258 -0.899867 0.894429 5.344332 13.445045 6.706113 -8.532566 -6.926972 -1.241953 -4.317132 -8.669378 8.284466 1.878641 10.280460 -37.791530 -5.098695 -9.920013 28.551154 19.539606 -1.328620 -6.483922 -17.058181 -4.706294 -3.409718 -4.754781 10.810189 -18.243693 -2.469200 -3.590635 12.630584 -0.342966 -7.559356 1.870766 2.907910
0.009681 0.038555 0.033042 3.845252 5.770459 4.893222 0.000000 0.000000 0.000000 0.000000 0.000000 0.000000 -2.365063 -3.953333 -3.378249 -0.000000 0.000000 -0.000000 -1.230383 -9.200539 -8.226929 -2.060295 6.997142 0.115875 1.461424 7.325123 -6.044575 -21.332164 -4.624163 7.692145 18.160628 -9.374238 -0.018464 -8.613434 -7.265718 -1.514434 2.446176 0.483078 -1.571352 0.363453 -1.157876 -1.734054 3.112631 3.874148 5.064409 -1.933073 -0.993001 -6.213811 -7.485658 6.429676 0.620462 5.753004 -27.203790 -4.373030 -12.655006 19.976957 8.971532 7.640724 -5.955681 -5.703646 -3.518715 -5.058581 -7.322787 9.418446 -6.231113 0.721753 -2.472372 7.438060 -1.371072 -7.617572 -1.744043 2.860144
0.011256 0.046105 0.041447 3.671447 4.625321 3.634655 -0.000000 0.000000 -0.000000 -0.000000 0.000000 -0.000000 -2.303981 -5.202430 -1.885588 0.000000 -0.000000 -0.000000 -1.188314 -5.837799 -5.977394 -1.561371 4.514243 -0.378804 2.156486 5.071832 -9.347718 -20.403146 -3.728823 11.403693 16.813606 -8.777518 -0.408191 -7.563414 -2.629801 -0.922551 4.551682 3.045953 -3.537578 2.522516 -2.608398 -7.541526 -9.830908 -3.806785 16.772727 7.029171 -0.857611 -9.106374 -5.838553 3.837973 -1.107850 -0.470465 -15.103187 -1.892490 -21.998155 12.502050 -6.849435 24.485294 -1.589114 9.926126 -2.446151 -5.866312 -8.578160 6.288554 4.355802 3.399497 -0.554468 1.931094 -1.896763 -7.497552 -4.749887 2.450260
0.012568 0.053120 0.049979 3.269835 3.541825 2.050321 -0.000000 0.000000 0.000000 -0.000000 0.000000 0.000000 -2.013376 -6.412204 -0.185996 0.000000 -0.000000 -0.000000 -1.281440 -2.550907 -3.266946 -0.878078 1.757307 -1.135641 2.279290 2.598411 -11.364537 -17.265090 -2.336405 15.197557 13.479595 -7.420355 -1.947281 -6.218233 1.194229 -0.237293 5.826103 4.911545 -4.633992 4.399630 -3.417304 -10.601812 -21.777985 -13.473912 23.209272 17.239179 -1.296480 -12.526556 -4.054323 1.192225 -2.452125 -6.647651 -3.770989 1.782300 -32.585139 11.219830 -24.429162 41.221599 6.527593 23.646101 -1.258748 -5.284552 -8.667217 2.404827 10.961196 5.954204 1.670478 -2.824320 -2.525548 -7.167063 -6.367783 2.569907
0.013677 0.059497 0.058555 2.658949 2.504143 0.262623 0.000000 0.000000 0.000000 0.000000 0.000000 0.000000 -1.592867 -7.402948 1.490144 0.000000 -0.000000 -0.000000 -1.522218 0.588429 -0.253744 -0.101467 -1.407611 -2.125611 1.984333 0.557984 -12.061032 -12.190831 -0.564580 16.986933 8.689847 -5.025147 -2.849728 -4.608176 4.063179 0.470365 6.088404 5.450805 -4.982704 5.346993 -3.290564 -11.443020 -29.099055 -20.104756 25.155657 23.700277 -1.961511 -14.846375 -2.333608 -0.884617 -2.963899 -10.795519 5.518572 5.173315 -35.770081 11.091272 -35.675513 48.345354 11.238542 30.425459 -0.055701 -3.454496 -7.755927 -0.916004 13.378886 7.807930 3.416361 -6.037792 -3.726590 -6.459972 -6.840359 3.573924
0.014717 0.065300 0.067224 1.921026 1.425423 -1.513146 -0.000000 -0.000000 0.000000 -0.000000 -0.000000 0.000000 -1.184577 -7.937710 2.898873 -0.000000 -0.000000 0.000000 -1.870193 3.730387 2.794243 0.595072 -4.872583 -3.215242 1.632776 -0.594363 -12.114022 -6.975784 0.803416 15.625906 4.050134 -2.278586 -1.450678 -2.863130 6.137964 1.093958 5.582596 4.459318 -4.904846 5.162681 -2.646176 -11.110351 -31.152803 -21.937205 25.538044 25.523219 -2.181066 -15.445920 -0.888475 -1.836295 -2.496258 -11.178879 12.016831 6.568724 -35.057202 8.219807 -39.461693 47.559459 10.775131 32.416797 0.838515 -1.042490 -5.916240 -2.880933 13.151751 8.327251 3.921659 -7.691657 -5.745905 -4.974389 -6.623398 5.430201
0.015828 0.070667 0.075990 1.174023 0.105334 -3.059445 -0.000000 0.000000 0.000000 -0.000000 0.000000 0.000000 -0.948369 -7.598048 3.854330 -0.000000 0.000000 0.000000 -2.250421 7.137368 5.562515 1.031784 -8.323901 -4.215391 1.459300 -0.728737 -12.072636 -3.240354 1.049948 11.344190 0.771365 -0.068464 2.659833 -1.178276 7.964886 1.502830 4.828009 2.640661 -4.757014 4.070514 -2.250767 -10.042900 -29.673724 -20.284685 25.325224 24.433806 -1.857264 -14.560913 0.047939 -1.323586 -1.077910 -6.800176 15.345921 4.880056 -29.465245 0.998327 -33.623456 36.802512 4.484253 28.620070 1.216534 1.322349 -3.402463 -3.469866 11.862490 7.547938 3.238024 -8.560033 -8.041870 -3.014867 -5.461749 7.523822
0.017090 0.075689 0.084652 0.472554 -1.605934 -4.189878 -0.000000 0.000000 0.000000 -0.000000 0.000000 0.000000 -0.919715 -6.097360 4.289592 -0.000000 -0.000000 -0.000000 -2.516959 10.848070 7.719657 1.121467 -11.398149 -4.968793 1.413950 -0.154996 -11.733379 -1.089073 0.311452 5.185031 -1.182776 1.403142 8.352951 0.271824 10.044637 1.590874 4.193809 1.080210 -4.650770 2.857496 -2.227226 -8.735546 -27.492353 -17.864084 24.116612 22.688727 -1.247585 -12.764347 0.502231 0.455979 0.670065 -0.794650 16.265797 1.761804 -22.087738 -5.084808 -23.406421 23.190347 -1.487385 21.532964 1.204732 3.523124 -0.794894 -3.079025 10.188700 6.008176 1.900651 -9.154550 -9.688849 -1.273602 -3.349893 8.976841
0.018517 0.080354 0.092831 -0.216850 -3.587968 -4.798329 0.000000 -0.000000 -0.000000 0.000000 -0.000000 -0.000000 -0.913878 -3.735966 4.294644 -0.000000 0.000000 0.000000 -2.465642 14.441564 8.999206 0.932310 -13.663808 -5.369645 1.311134 0.381193 -10.730477 0.575720 -0.666918 -0.708955 -2.783807 2.426679 13.130485 1.399894 12.350566 1.397857 3.783559 0.301130 -4.529691 2.359377 -2.224563 -8.324846 -27.496658 -17.346853 22.812834 22.877503 -0.724163 -11.263081 0.811676 2.817541 1.789177 2.963767 16.391350 -0.316454 -14.209965 -8.842457 -13.579642 11.324979 -4.342200 13.985697 1.118853 5.703418 1.291442 -2.316305 7.869089 4.313346 0.406805 -9.141838 -10.200131 0.072424 -0.860702 9.366083
0.020081 0.084601 0.100173 -0.924613 -5.512321 -4.938935 0.000000 -0.000000 -0.000000 0.000000 -0.000000 -0.000000 -0.709574 -1.279139 4.050320 0.000000 0.000000 -0.000000 -1.971046 17.150497 9.318180 0.655374 -14.585812 -5.325533 1.067739 0.252373 -9.140627 2.509823 -1.331667 -4.569882 -4.613841 3.211063 15.255274 2.221649 14.457392 1.101844 3.581800 0.250176 -4.385166 2.729925 -2.208263 -9.357398 -30.430300 -19.252033 22.697050 25.821810 -0.548486 -11.085796 1.295191 4.990988 1.854338 2.707857 16.576689 -0.240726 -7.184122 -11.770628 -7.442017 3.967632 -3.721308 8.859863 1.239284 7.721055 2.460561 -1.920324 4.309769 2.962529 -0.470837 -8.537129 -9.511122 0.819466 2.233309 8.742651
0.021773 0.088416 0.106542 -1.609938 -7.118256 -4.789749 0.000000 0.000000 0.000000 0.000000 0.000000 0.000000 -0.298541 0.616184 3.705374 0.000000 0.000000 0.000000 -1.124079 18.296746 8.814108 0.490316 -13.732909 -4.791274 0.751900 -0.447579 -7.201862 4.250929 -1.629384 -6.534280 -6.100437 3.709849 15.033600 2.840088 15.994181 0.821075 3.484282 0.741250 -4.220613 3.429628 -2.447943 -10.948985 -33.980471 -21.836757 23.639300 29.387504 -0.806279 -12.057156 1.997598 6.442842 1.207836 -0.445931 15.880017 1.474124 -1.404737 -14.645955 -5.047082 0.500104 -0.368437 6.562451 1.657700 9.223505 2.650980 -2.463384 -0.528166 2.203603 0.051119 -7.940804 -7.998638 0.724907 6.599502 7.473561
0.023614 0.091852 0.112058 -2.192461 -8.343941 -4.509396 -0.000000 0.000000 0.000000 -0.000000 0.000000 0.000000 0.150473 1.792747 3.320518 0.000000 -0.000000 -0.000000 -0.177885 17.764863 7.764312 0.511527 -11.144344 -3.861497 0.451527 -1.084495 -4.985652 4.825789 -1.797742 -7.777777 -6.264042 3.713348 13.712999 3.383119 16.834376 0.519075 3.310552 1.482935 -3.980661 3.900525 -2.800409 -11.922557 -35.196674 -22.862423 24.501236 30.644436 -1.086396 -12.808441 2.748955 7.002286 0.509009 -3.897494 13.758496 3.348192 1.418635 -16.559712 -6.192741 0.169327 4.213121 6.844921 2.227074 9.983429 2.201030 -3.850390 -5.329168 1.902535 1.641662 -7.337461 -6.621103 0.335471 11.194238 6.258468
